<?xml version="1.0" standalone="no"?>
<!DOCTYPE svg PUBLIC "-//W3C//DTD SVG 20010904//EN"
 "http://www.w3.org/TR/2001/REC-SVG-20010904/DTD/svg10.dtd">
<svg version="1.0" xmlns="http://www.w3.org/2000/svg"
 width="593.000000pt" height="533.000000pt" viewBox="0 0 593.000000 533.000000"
 preserveAspectRatio="xMidYMid meet">
<metadata>
Created by potrace 1.16, written by Peter Selinger 2001-2019
</metadata>
<g transform="translate(0.000000,533.000000) scale(0.100000,-0.100000)"
fill="#000000" stroke="none">
<path d="M4195 5271 c-137 -31 -263 -60 -278 -64 l-28 -8 3 -122 3 -121 92
-18 c51 -9 97 -19 101 -22 5 -3 92 -24 193 -46 101 -22 191 -43 200 -46 14 -4
16 21 16 251 l-1 255 -25 -1 c-14 -1 -138 -27 -276 -58z"/>
<path d="M350 4108 c-1 -48 -4 -55 -32 -73 -17 -11 -41 -33 -52 -48 l-21 -28
-3 -1380 -2 -1379 2182 0 c1200 0 2179 2 2177 5 -3 2 -68 25 -146 50 l-141 45
-1266 0 -1266 0 0 200 0 200 725 0 726 0 37 36 36 35 96 -2 c87 -2 100 -5 156
-35 l61 -34 182 0 c174 0 183 -1 188 -20 8 -29 73 -29 73 0 0 22 23 26 65 10
25 -10 26 -8 121 182 81 163 105 202 165 270 l71 78 -34 0 c-79 0 -161 66
-201 160 -39 91 -49 153 -37 220 14 83 41 180 49 180 3 0 18 -15 33 -34 64
-80 224 -156 328 -156 44 0 49 -2 61 -32 l14 -33 7 53 c10 66 23 92 47 92 48
0 62 -91 21 -136 -13 -13 -29 -24 -37 -24 -8 0 -13 -13 -13 -37 1 -61 40 -98
137 -132 106 -37 218 -107 311 -195 64 -61 81 -85 127 -181 78 -159 114 -285
181 -638 l6 -27 -251 0 c-196 0 -251 -3 -251 -13 0 -7 -9 -29 -20 -50 l-20
-37 305 0 305 0 0 50 0 50 55 0 55 0 0 970 0 970 -360 0 -361 0 3 148 3 147
358 3 357 2 0 310 0 310 -2655 0 -2655 0 0 -52z m4989 -94 c43 -36 44 -93 2
-135 -67 -66 -177 -3 -156 90 15 68 98 93 154 45z m-3734 -632 c18 -67 25
-114 21 -135 -4 -18 -11 -60 -16 -95 -22 -146 -86 -220 -203 -231 l-61 -6 103
-100 c109 -105 153 -164 191 -255 13 -30 25 -56 26 -58 4 -6 68 31 133 78 l66
47 95 2 c94 2 95 2 124 -28 l30 -31 948 0 948 0 0 -215 c0 -118 -3 -215 -6
-215 -4 0 -24 5 -45 12 -50 14 -106 -1 -153 -42 l-33 -30 -579 -3 c-632 -4
-597 -1 -784 -66 -133 -47 -253 -64 -435 -65 l-160 -1 -65 32 c-36 18 -88 53
-117 78 l-51 45 -6 -83 c-29 -381 -45 -570 -51 -575 -14 -15 -462 -6 -600 12
-135 17 -401 65 -477 86 -46 13 -45 6 -13 197 68 391 188 850 260 993 47 94
155 175 298 225 81 29 137 76 137 115 0 36 -19 67 -45 74 -39 10 -65 41 -65
80 0 40 25 70 49 60 61 -26 113 -9 142 47 10 21 19 47 19 58 0 28 11 32 52 19
29 -9 43 -7 83 11 27 12 68 21 97 21 41 0 54 5 76 28 15 15 30 25 34 22 3 -3
18 -51 33 -108z m2192 -83 c90 -23 147 -120 123 -210 -14 -52 -63 -106 -108
-119 -25 -8 -302 -10 -863 -8 l-826 3 -37 29 c-45 34 -66 79 -66 141 0 76 43
134 117 160 51 19 1588 22 1660 4z m1652 -358 c44 -66 81 -122 81 -125 0 -3
-27 -6 -60 -6 l-60 0 0 -305 0 -305 -55 0 -55 0 0 305 0 305 -55 0 c-30 0 -55
3 -55 6 0 9 164 243 171 244 3 0 43 -54 88 -119z m-1502 -842 c123 -46 174
-246 82 -323 -38 -32 -82 -33 -129 -5 -65 40 -99 106 -100 192 0 67 19 110 58
131 33 18 52 19 89 5z"/>
<path d="M5281 778 c-5 -13 -12 -47 -16 -76 l-7 -54 -159 -116 c-91 -67 -158
-123 -156 -131 1 -8 5 -15 9 -15 4 -1 80 52 168 118 l161 118 44 -11 c68 -17
105 -14 105 7 0 15 -13 21 -61 30 -34 6 -63 13 -64 14 -2 2 1 26 7 53 15 75
14 79 -4 83 -12 2 -21 -5 -27 -20z"/>
</g>
</svg>
