<?xml version="1.0" standalone="no"?>
<!DOCTYPE svg PUBLIC "-//W3C//DTD SVG 20010904//EN"
 "http://www.w3.org/TR/2001/REC-SVG-20010904/DTD/svg10.dtd">
<svg version="1.0" xmlns="http://www.w3.org/2000/svg"
 width="433.000000pt" height="577.000000pt" viewBox="0 0 433.000000 577.000000"
 preserveAspectRatio="xMidYMid meet">

<g transform="translate(0.000000,577.000000) scale(0.100000,-0.100000)"
fill="#000000" stroke="none">
<path d="M2155 4369 c-54 -6 -79 -14 -163 -53 l-24 -10 27 -9 c20 -7 30 -6 36
4 7 11 9 11 9 1 0 -7 -7 -15 -15 -18 -8 -4 -15 -10 -15 -16 0 -5 5 -6 10 -3 6
3 10 1 10 -4 0 -6 -4 -11 -9 -11 -5 0 -17 -3 -27 -7 -13 -5 -16 -3 -11 10 13
35 -23 31 -108 -10 -80 -39 -101 -63 -143 -160 -37 -88 -27 -205 27 -311 12
-23 21 -49 22 -59 0 -16 1 -16 10 2 5 11 13 33 19 49 10 27 11 28 30 11 10 -9
20 -29 22 -44 l4 -26 13 27 c28 56 83 47 99 -15 9 -38 10 -39 11 -12 2 54 14
60 51 26 58 -52 130 -50 130 4 0 30 15 32 30 4 14 -25 5 -70 -21 -103 -15 -20
-17 -24 -5 -20 21 8 56 66 56 93 0 16 6 21 25 21 22 0 25 -4 25 -34 0 -50 18
-93 48 -112 l27 -18 -28 33 c-15 18 -27 44 -27 58 l0 25 34 -22 c42 -26 77
-19 125 23 35 30 35 30 45 8 6 -14 5 -30 -3 -48 -11 -23 -10 -25 3 -13 9 7 16
18 16 25 0 7 7 18 16 26 11 9 14 22 10 43 -4 22 1 43 20 75 13 25 28 65 31 90
6 42 5 45 -10 32 -15 -12 -17 -11 -17 9 0 13 8 30 19 39 30 26 34 55 11 81
-11 13 -21 28 -21 34 -1 6 -3 21 -4 34 -1 13 -33 53 -70 92 -38 38 -73 76 -78
85 -11 20 -89 55 -123 55 -14 0 -35 5 -46 11 -15 8 -22 8 -28 -1 -6 -10 -9
-10 -11 1 -3 11 -17 13 -64 8z m-62 -150 c-15 -16 -22 -18 -28 -8 -5 7 -4 10
3 5 6 -3 16 3 22 15 7 11 14 18 18 15 3 -4 -3 -16 -15 -27z m-81 -41 c-7 -7
-12 -8 -12 -2 0 14 12 26 19 19 2 -3 -1 -11 -7 -17z m121 -44 c-3 -8 -12 -14
-20 -14 -8 0 -11 5 -7 11 4 8 0 8 -15 0 -25 -14 -30 3 -5 17 23 13 54 3 47
-14z m30 11 c-3 -9 -8 -14 -10 -11 -3 3 -2 9 2 15 9 16 15 13 8 -4z m68 -21
c8 4 5 0 -6 -9 -18 -14 -21 -14 -32 1 -7 9 -10 21 -7 26 3 5 12 1 18 -8 8 -10
19 -14 27 -10z m285 -2 c6 -4 16 -21 22 -39 8 -25 7 -35 -5 -50 -13 -16 -14
-16 -9 -1 6 20 -10 34 -17 16 -3 -7 -6 -2 -6 12 -1 29 -20 66 -21 40 0 -13 -1
-13 -10 0 -5 8 -10 18 -10 23 0 9 42 9 56 -1z m50 -37 c16 -40 18 -69 4 -60
-5 3 -10 17 -10 31 0 14 -5 34 -10 45 -6 10 -8 19 -5 19 3 0 13 -16 21 -35z
m-251 -133 c-6 -16 21 -52 38 -52 17 0 97 -41 97 -49 0 -4 -20 -8 -44 -9 -62
0 -99 -20 -111 -59 -8 -28 -14 -33 -40 -33 -41 0 -45 5 -34 43 8 28 6 34 -19
54 -15 12 -39 25 -54 28 -31 7 -32 9 -18 36 11 20 45 26 54 10 8 -13 106 40
106 57 0 12 3 12 15 2 9 -7 13 -20 10 -28z m-192 2 c10 -10 -15 -64 -39 -83
-13 -10 -24 -26 -24 -35 0 -21 -31 -36 -76 -36 l-37 0 19 21 c10 12 29 25 41
30 12 4 39 31 60 58 38 50 45 56 56 45z m367 -180 c0 -8 -4 -12 -10 -9 -5 3
-10 13 -10 21 0 8 5 12 10 9 6 -3 10 -13 10 -21z m-410 -37 c0 -5 -4 -5 -10
-2 -5 3 -10 14 -10 23 0 15 2 15 10 2 5 -8 10 -19 10 -23z m395 -6 c3 -5 1
-12 -5 -16 -5 -3 -10 1 -10 9 0 18 6 21 15 7z m-57 -18 c-2 -9 -8 -18 -15 -20
-7 -3 -9 3 -6 16 6 25 26 28 21 4z"/>
<path d="M1815 3710 c-17 -19 -15 -50 4 -50 7 0 31 51 31 66 0 10 -19 2 -35
-16z"/>
<path d="M2165 3540 c-18 -7 -18 -9 8 -19 16 -6 36 -11 46 -11 9 0 22 -5 29
-12 9 -9 12 -9 12 0 0 7 3 11 8 11 32 -5 53 3 50 18 -3 15 -15 18 -68 19 -36
1 -74 -2 -85 -6z"/>
<path d="M2185 3473 c-48 -17 -80 -43 -52 -43 35 0 76 -28 70 -49 -6 -24 33
-35 76 -20 40 14 39 24 -1 27 -18 2 -34 7 -36 12 -2 5 -19 14 -38 20 -42 14
-35 34 9 24 18 -4 44 -6 60 -5 27 1 38 -14 15 -22 -7 -2 4 -6 25 -8 30 -4 37
-2 37 13 0 20 -44 53 -60 43 -5 -3 -12 0 -15 7 -7 17 -41 18 -90 1z"/>
<path d="M1986 3275 c4 -8 17 -18 30 -21 19 -5 23 -11 20 -30 -3 -13 -1 -26 4
-29 15 -9 36 -59 35 -85 0 -17 -9 -29 -30 -40 -24 -12 -29 -20 -27 -40 2 -14
7 -29 12 -35 4 -5 11 -26 15 -45 3 -19 9 -43 11 -52 3 -10 -2 -18 -13 -21 -14
-4 -12 -5 5 -6 14 -1 22 -6 19 -13 -5 -15 -57 -13 -206 8 -57 8 -105 14 -107
12 -2 -2 22 -17 54 -33 49 -25 69 -30 142 -31 143 -1 133 3 170 -64 19 -33 42
-67 51 -76 15 -13 18 -12 37 20 19 32 56 61 125 96 47 23 77 67 77 108 -1 35
-2 36 -15 18 -8 -11 -15 -32 -15 -46 0 -30 -27 -60 -53 -60 -9 0 -17 -5 -17
-12 0 -9 -3 -9 -11 -1 -9 9 -3 30 25 85 55 107 61 117 88 146 26 29 58 100 58
131 0 28 -33 51 -72 51 -49 0 -68 9 -68 31 0 24 -8 24 -45 -1 -51 -34 -171
-21 -258 29 -45 25 -48 26 -41 6z m382 -232 c-2 -10 -11 -19 -20 -21 -12 -2
-15 2 -11 17 7 25 36 28 31 4z"/>
<path d="M1840 3161 c-20 -6 -26 -14 -28 -46 -2 -22 -7 -44 -12 -50 -5 -6 -3
-18 5 -28 11 -15 13 -12 18 30 4 35 11 51 31 66 14 10 26 23 26 28 0 10 -4 10
-40 0z"/>
<path d="M2880 2770 c0 -17 5 -30 13 -30 9 0 9 -2 0 -8 -16 -10 5 -155 42
-292 14 -52 31 -120 37 -152 12 -58 11 -62 -42 -183 -5 -11 -15 -41 -24 -68
-15 -46 -14 -48 15 -103 32 -62 37 -114 13 -138 -20 -21 -34 -12 -35 22 0 15
-6 45 -13 67 l-12 40 -23 -65 c-25 -71 -86 -227 -106 -275 -7 -16 -16 -41 -20
-55 -8 -29 -85 -209 -126 -296 -16 -34 -29 -67 -29 -73 0 -7 -7 -23 -16 -36
-8 -13 -14 -36 -12 -52 l3 -28 27 30 c25 27 29 28 54 15 24 -13 28 -13 44 7
10 12 20 20 22 18 3 -3 5 2 5 10 0 14 -6 16 -46 19 -25 2 -23 21 12 97 19 41
40 92 47 114 7 22 31 78 52 125 22 47 44 95 49 107 5 14 14 20 22 17 8 -3 17
2 20 10 3 8 18 34 33 58 27 42 28 42 35 18 4 -14 7 -42 8 -63 1 -21 8 -52 17
-70 12 -21 13 -32 5 -35 -16 -5 -13 -22 4 -22 40 0 87 -40 116 -97 19 -39 26
-48 22 -28 -7 37 -40 139 -58 180 -21 48 -45 127 -45 148 0 27 28 46 70 47 19
0 53 9 75 20 22 11 48 19 58 20 23 0 44 21 49 46 2 15 -5 20 -37 25 -51 7 -85
19 -85 29 0 5 -9 12 -21 15 -18 6 -12 12 43 46 34 21 68 39 74 39 6 0 19 10
30 21 19 21 19 22 -3 36 -13 9 -23 20 -23 25 0 17 -45 65 -57 61 -9 -3 -24 25
-27 52 -1 6 -6 15 -12 20 -6 6 -21 53 -34 105 -13 52 -31 111 -41 130 -11 19
-19 39 -19 45 0 5 -9 21 -20 35 -11 14 -20 35 -20 46 0 15 -6 21 -17 20 -12
-1 -17 5 -15 18 2 10 -2 41 -8 70 -6 28 -13 62 -16 75 -4 20 -7 22 -15 10 -6
-10 -9 -7 -9 14 0 17 -5 27 -15 27 -10 0 -15 -10 -15 -30z"/>
<path d="M1373 2699 c7 -48 6 -64 -4 -70 -7 -4 -17 -5 -21 -3 -13 8 -9 -6 6
-21 10 -10 12 -42 10 -132 -2 -65 -7 -129 -10 -143 -10 -35 -10 -141 -1 -147
4 -2 3 -12 -1 -21 -9 -19 -8 -99 1 -109 4 -3 4 -16 1 -29 -3 -13 -1 -37 4 -54
8 -21 8 -39 0 -62 -9 -27 -8 -33 8 -45 10 -8 18 -18 17 -23 -17 -61 -20 -91
-10 -81 15 15 87 13 117 -4 14 -8 38 -14 53 -15 49 0 45 -26 -25 -165 -37 -71
-69 -143 -73 -159 -3 -16 -18 -45 -33 -65 -14 -20 -28 -38 -29 -40 -2 -3 -16
7 -31 21 -42 39 -63 43 -84 16 l-18 -23 9 26 c12 32 6 39 -29 39 -17 0 -38
-13 -62 -37 -31 -34 -36 -44 -37 -96 -2 -65 8 -72 50 -31 21 20 42 28 80 32
48 4 54 3 75 -23 l22 -28 13 37 c7 20 16 36 20 36 4 0 11 9 14 21 4 11 28 52
54 92 26 40 62 98 80 130 18 32 41 66 50 75 17 17 57 235 46 252 -7 11 -54
171 -71 240 -29 119 -54 203 -65 216 -6 7 -14 52 -19 101 -10 97 -62 316 -81
339 -6 8 -17 14 -24 14 -9 0 -10 -15 -2 -61z m-181 -1371 c-7 -7 -12 -8 -12
-2 0 14 12 26 19 19 2 -3 -1 -11 -7 -17z"/>
<path d="M3045 2615 c4 -22 12 -44 17 -50 6 -6 7 4 3 30 -4 22 -12 45 -17 50
-6 6 -7 -4 -3 -30z"/>
<path d="M1629 2178 c-1 -7 -1 -16 0 -20 2 -12 -17 -10 -24 2 -10 16 -22 12
-28 -10 -3 -11 0 -21 6 -21 26 -3 124 2 150 7 37 8 34 -2 -12 -48 -22 -21 -37
-38 -34 -38 3 0 0 -7 -7 -15 -7 -8 -22 -15 -33 -15 -19 0 -20 -2 -6 -15 8 -9
32 -18 52 -22 33 -5 37 -3 31 12 -4 10 -1 21 7 25 7 5 10 12 5 17 -4 4 -12 0
-17 -10 -12 -21 -29 -22 -29 -2 0 8 6 15 13 15 7 0 31 16 53 35 21 19 47 35
56 35 10 0 23 9 30 20 7 11 18 20 25 20 7 0 13 5 13 11 0 7 -8 9 -22 4 -47
-15 -79 -17 -91 -7 -8 7 -26 8 -52 2 -49 -12 -65 -12 -64 -2 3 18 -2 32 -11
32 -5 0 -11 -6 -11 -12z"/>
<path d="M2100 1959 c0 -5 5 -7 10 -4 6 3 10 8 10 11 0 2 -4 4 -10 4 -5 0 -10
-5 -10 -11z"/>
<path d="M3246 1941 c-3 -5 -26 -11 -52 -14 -72 -8 -82 -29 -11 -26 31 1 57 6
57 11 0 4 9 8 20 8 11 0 20 4 20 9 0 12 -28 22 -34 12z"/>
<path d="M2080 1924 c0 -8 5 -12 10 -9 6 3 10 10 10 16 0 5 -4 9 -10 9 -5 0
-10 -7 -10 -16z"/>
<path d="M1650 1755 c0 -32 46 -146 63 -157 33 -21 114 8 103 38 -3 8 11 25
34 41 41 29 50 47 28 56 -7 3 -1 6 15 6 15 1 27 5 27 11 0 5 -21 7 -50 3 -32
-4 -50 -2 -50 5 0 14 -26 23 -46 15 -8 -3 -20 -17 -25 -30 l-9 -24 -33 22
c-17 13 -33 27 -35 31 -8 18 -22 6 -22 -17z m185 -25 c4 -6 -5 -10 -20 -10
-15 0 -24 4 -20 10 3 6 12 10 20 10 8 0 17 -4 20 -10z"/>
<path d="M2008 1730 c-22 -20 -23 -30 -4 -30 7 0 16 10 19 22 8 28 6 29 -15 8z"/>
<path d="M1967 1646 c-3 -8 1 -20 9 -26 11 -10 14 -9 14 8 0 25 -16 37 -23 18z"/>
<path d="M1920 1588 c0 -11 -8 -18 -18 -18 -25 0 -42 -19 -42 -47 0 -22 4 -23
63 -23 59 0 127 25 127 48 0 4 -26 13 -57 21 -32 7 -61 18 -65 25 -5 7 -8 5
-8 -6z"/>
<path d="M1710 1490 c0 -5 4 -10 9 -10 5 0 24 -24 42 -52 19 -29 48 -72 66
-96 18 -24 33 -49 33 -56 0 -18 68 -86 97 -97 34 -13 43 -11 43 6 0 8 -6 15
-13 15 -21 0 -98 88 -162 185 -33 50 -66 95 -75 102 -18 15 -40 17 -40 3z"/>
<path d="M2222 1435 c9 -10 21 -16 28 -13 7 2 -1 10 -16 17 -27 12 -28 11 -12
-4z"/>
<path d="M2952 1372 c2 -23 7 -42 11 -42 4 0 5 17 1 38 -9 52 -15 54 -12 4z"/>
<path d="M2207 1353 c-4 -3 -7 -11 -7 -17 0 -6 5 -5 12 2 6 6 9 14 7 17 -3 3
-9 2 -12 -2z"/>
<path d="M2150 1320 c-13 -9 -13 -10 0 -10 8 0 26 -3 40 -7 23 -6 24 -6 8 10
-19 19 -27 21 -48 7z"/>
<path d="M2958 1294 c-3 -3 -2 -21 4 -41 7 -25 6 -49 -2 -79 -7 -24 -10 -51
-6 -59 3 -9 1 -25 -4 -36 -8 -14 -7 -19 2 -19 8 0 9 -3 2 -10 -6 -6 -9 -35 -7
-65 3 -36 0 -55 -7 -55 -6 0 -8 -5 -4 -12 12 -19 5 -89 -12 -125 -8 -17 -26
-41 -41 -52 -14 -12 -23 -21 -20 -21 12 0 77 34 77 40 0 3 9 6 20 6 24 0 25
-9 4 -27 -8 -7 -13 -21 -10 -32 3 -11 -2 -30 -11 -43 -8 -13 -13 -30 -10 -38
14 -35 -76 -76 -168 -76 -51 0 -72 -5 -94 -21 -15 -11 -47 -23 -70 -26 -35 -5
-41 -3 -35 11 3 9 15 16 25 16 10 0 19 5 19 10 0 16 -36 12 -51 -6 -10 -12
-23 -14 -61 -9 -42 6 -47 5 -42 -9 6 -15 -12 -16 -187 -12 -183 5 -247 12
-424 51 -128 28 -245 75 -291 117 l-22 20 -26 -112 c-14 -61 -33 -128 -42
-148 -13 -27 -16 -61 -14 -127 6 -192 5 -236 -7 -243 -6 -4 -15 -20 -18 -35
l-7 -27 788 0 789 0 -3 81 c-4 84 13 215 29 225 13 8 11 61 -3 83 -9 15 -9 31
1 73 7 29 15 95 18 146 3 50 10 92 14 92 5 0 9 21 9 46 0 27 -4 43 -10 39 -5
-3 -10 -2 -10 4 0 5 6 12 13 15 6 4 2 4 -9 2 -17 -3 -20 1 -17 15 3 10 0 33
-7 51 -6 18 -13 88 -15 155 -2 67 -7 128 -11 135 -5 7 -10 31 -11 53 -8 90 -9
95 -25 79z"/>
<path d="M2041 1086 c-8 -14 -18 -26 -21 -26 -4 0 -27 -18 -51 -40 -24 -22
-50 -40 -56 -40 -7 0 -13 -9 -13 -20 0 -19 7 -20 97 -20 59 0 119 6 155 16 57
16 58 17 41 36 -16 17 -16 18 0 12 10 -3 17 -1 17 5 0 6 -7 11 -16 11 -13 0
-14 3 -5 14 14 17 -9 29 -42 21 -37 -9 -81 9 -87 34 l-5 23 -14 -26z"/>
<path d="M2486 965 c-14 -30 -25 -57 -23 -59 1 -2 -6 -13 -16 -24 -11 -12 -16
-26 -12 -31 3 -6 3 -17 -2 -23 -10 -16 -32 -78 -27 -78 15 0 62 29 77 48 10
12 25 29 33 37 9 8 12 19 9 25 -3 5 -1 10 6 10 18 0 99 69 99 85 0 16 -25 26
-45 19 -8 -3 -26 6 -40 20 -14 14 -27 26 -29 26 -2 0 -15 -25 -30 -55z"/>
<path d="M2213 943 c-22 -8 -14 -21 18 -28 20 -5 35 -3 42 5 9 10 7 12 -10 7
-24 -5 -32 8 -10 16 6 3 3 5 -8 5 -11 0 -26 -2 -32 -5z"/>
<path d="M1153 908 c8 -24 12 -28 15 -15 5 23 -4 47 -17 47 -6 0 -5 -13 2 -32z"/>
<path d="M3391 873 c-7 -24 -18 -43 -25 -43 -13 0 -24 -33 -31 -97 -1 -18 1
-33 6 -33 13 0 10 -32 -4 -50 -7 -8 -19 -15 -27 -15 -10 0 -14 -8 -12 -23 2
-13 -1 -21 -8 -20 -12 3 -17 -4 -41 -54 -7 -16 -19 -28 -26 -28 -17 0 -29 -30
-15 -39 7 -4 5 -27 -5 -74 -12 -54 -21 -72 -42 -85 -14 -9 -27 -17 -29 -18 -2
-1 2 -12 8 -24 10 -18 18 -20 54 -16 59 6 126 41 126 66 0 10 14 28 30 40 17
12 30 28 30 36 0 8 3 14 8 14 4 0 19 15 33 33 l26 32 -8 180 c-4 119 -12 194
-22 220 l-14 40 -12 -42z m-53 -290 c-4 -40 -24 -55 -35 -27 -4 10 0 22 10 29
10 7 17 17 17 24 0 6 3 11 6 11 3 0 4 -17 2 -37z m-95 -158 c-7 -21 -13 -19
-13 6 0 11 4 18 10 14 5 -3 7 -12 3 -20z"/>
<path d="M1130 785 c0 -79 2 -86 24 -101 16 -10 26 -27 28 -47 2 -22 8 -32 19
-31 10 1 16 -9 17 -34 3 -44 6 -49 36 -54 27 -5 44 18 26 36 -5 5 -10 30 -10
56 0 25 -8 66 -18 92 -20 53 -32 70 -32 45 0 -10 -8 -17 -20 -17 -18 0 -20 7
-21 63 -1 34 -1 65 0 70 0 4 -10 7 -24 7 -25 0 -25 -1 -25 -85z"/>
<path d="M1340 831 c0 -29 4 -41 14 -41 8 0 17 -10 19 -22 3 -13 4 4 3 37 -1
48 -4 60 -18 63 -15 3 -18 -4 -18 -37z"/>
<path d="M1792 754 c-1 -35 0 -36 27 -31 17 4 36 0 48 -8 11 -8 23 -12 26 -9
3 3 18 -3 34 -14 15 -12 66 -28 113 -37 83 -15 153 -36 197 -57 12 -6 52 -11
90 -11 61 -1 75 3 131 36 44 25 62 32 62 21 0 -19 41 -18 122 2 56 14 131 42
118 45 -69 13 -390 12 -406 -2 -17 -14 -161 -9 -193 6 -14 7 -73 15 -130 18
-102 6 -144 19 -106 33 13 5 2 11 -41 20 -32 7 -66 15 -75 19 -12 5 -16 -2
-17 -31z"/>
<path d="M2815 720 c-3 -6 1 -7 9 -4 18 7 21 14 7 14 -6 0 -13 -4 -16 -10z"/>
<path d="M3112 645 c1 -47 5 -85 9 -85 4 0 13 15 19 34 14 44 3 136 -17 136
-11 0 -13 -18 -11 -85z"/>
<path d="M1336 673 c-11 -28 11 -39 34 -18 20 18 20 20 3 26 -27 11 -30 10
-37 -8z"/>
<path d="M2741 601 c-14 -4 -26 -12 -29 -19 -3 -10 2 -10 25 0 54 23 56 34 4
19z"/>
<path d="M1363 583 c-30 -6 -29 -25 2 -39 19 -9 28 -9 42 1 15 11 15 15 4 29
-7 9 -16 15 -20 15 -3 -1 -16 -4 -28 -6z"/>
<path d="M1290 512 c0 -11 93 -42 129 -42 34 0 39 11 16 30 -11 9 -19 10 -28
1 -10 -8 -19 -7 -33 4 -20 15 -84 21 -84 7z"/>
</g>
</svg>
