<?xml version="1.0" standalone="no"?>
<!DOCTYPE svg PUBLIC "-//W3C//DTD SVG 20010904//EN"
 "http://www.w3.org/TR/2001/REC-SVG-20010904/DTD/svg10.dtd">
<svg version="1.0" xmlns="http://www.w3.org/2000/svg"
 width="448.000000pt" height="557.000000pt" viewBox="0 0 448.000000 557.000000"
 preserveAspectRatio="xMidYMid meet">

<g transform="translate(0.000000,557.000000) scale(0.100000,-0.100000)"
fill="#000000" stroke="none">
<path d="M2581 3485 c-18 -8 -46 -15 -62 -15 -15 0 -30 -4 -33 -9 -3 -4 -22
-11 -42 -14 -45 -8 -161 -86 -224 -152 -78 -83 -91 -118 -93 -248 -1 -106 0
-116 29 -178 29 -60 74 -109 102 -109 6 0 16 -17 23 -37 l13 -38 6 29 c5 33
23 38 28 9 5 -30 24 -63 34 -57 4 3 8 1 8 -5 0 -5 -5 -11 -10 -13 -6 -2 12
-15 38 -29 44 -23 52 -25 79 -14 58 25 81 56 89 123 5 50 10 62 25 62 10 0 27
-13 39 -30 27 -38 105 -73 144 -66 38 8 54 22 71 63 9 21 21 33 33 33 27 0 33
10 21 32 -9 16 -4 25 28 54 39 35 70 40 84 14 4 -8 18 -37 30 -65 12 -27 23
-44 26 -37 4 10 8 9 18 -4 7 -11 19 -15 29 -11 22 9 16 29 -12 42 -16 7 -22
19 -22 42 0 17 5 35 10 38 6 3 10 -1 10 -9 0 -8 11 -28 25 -43 l24 -28 1 32
c0 41 -9 63 -25 63 -11 0 -11 5 1 28 22 43 28 91 14 120 -7 15 -16 78 -20 140
-7 97 -12 118 -33 151 -62 93 -315 176 -435 142 -20 -6 -30 -6 -27 0 8 13 -4
11 -44 -6z m259 -689 c0 -7 -7 -19 -15 -26 -13 -11 -15 -8 -15 14 0 16 5 26
15 26 8 0 15 -6 15 -14z m-420 -86 c13 -24 12 -24 -6 -10 -10 8 -21 15 -23 17
-1 1 0 7 4 13 8 13 8 13 25 -20z"/>
<path d="M2526 2571 c-4 -7 -5 -15 -2 -18 9 -9 19 4 14 18 -4 11 -6 11 -12 0z"/>
<path d="M2675 2520 c-11 -5 -43 -9 -71 -9 -64 -1 -84 -19 -64 -56 7 -14 19
-25 27 -25 33 0 -1 -47 -42 -59 -23 -6 -29 -13 -27 -29 3 -22 -5 -26 -39 -23
-11 1 -16 -5 -15 -16 1 -12 -9 -19 -34 -23 -37 -6 -176 -63 -270 -110 -63 -32
-74 -43 -161 -165 -59 -83 -67 -100 -105 -235 -38 -131 -103 -314 -186 -520
-72 -178 -79 -256 -41 -441 l15 -77 43 -5 c23 -4 71 -15 106 -26 35 -11 93
-27 129 -37 101 -25 677 -142 755 -153 333 -46 305 -44 377 -26 63 16 70 16
108 1 23 -9 51 -14 63 -11 28 6 58 -19 76 -63 12 -28 12 -50 1 -133 -7 -55
-10 -102 -7 -105 4 -4 563 -95 672 -109 46 -6 70 8 80 48 6 23 4 27 -13 27
-21 0 -49 26 -38 37 3 3 18 1 32 -6 15 -6 28 -10 31 -8 5 6 6 54 1 120 l-5 58
-104 65 c-57 36 -107 69 -111 73 -4 3 -4 31 1 62 5 30 10 279 12 554 1 275 6
516 11 535 4 19 8 67 9 107 1 64 -2 76 -29 115 -16 23 -36 57 -45 73 -35 69
-102 122 -229 183 -127 61 -314 137 -358 146 -24 5 -101 76 -163 151 l-25 30
-11 -28 c-10 -27 -1 -147 15 -192 6 -16 4 -18 -6 -8 -8 7 -18 9 -24 4 -16 -13
-57 6 -63 29 -7 27 -15 25 -59 -14 -45 -40 -94 -57 -149 -50 -102 12 -133 36
-97 72 12 12 28 22 36 22 7 0 26 10 40 21 21 16 24 24 15 30 -11 6 -10 11 3
26 8 10 13 24 10 32 -3 8 0 11 7 7 13 -8 81 3 81 14 0 9 -111 24 -172 23 -27
-1 -48 3 -48 8 0 5 3 8 8 8 20 -3 32 2 32 16 0 8 8 15 18 15 10 0 28 7 41 17
23 15 23 17 6 30 -21 15 -22 15 -50 3z m32 -156 c-3 -3 -12 -4 -19 -1 -8 3 -5
6 6 6 11 1 17 -2 13 -5z m-47 -14 c0 -5 -2 -10 -4 -10 -3 0 -8 5 -11 10 -3 6
-1 10 4 10 6 0 11 -4 11 -10z m-90 -40 c0 -5 -9 -10 -21 -10 -11 0 -17 5 -14
10 3 6 13 10 21 10 8 0 14 -4 14 -10z m497 -302 c-3 -9 1 -22 9 -29 23 -19 17
-46 -32 -153 -26 -55 -61 -143 -79 -196 -59 -170 -87 -244 -108 -290 l-20 -45
-19 42 c-10 23 -19 61 -21 84 -2 36 -7 45 -32 59 -21 11 -32 27 -37 51 -13 66
-36 145 -57 198 -22 55 -22 58 16 98 18 20 87 16 107 -6 10 -11 25 -17 36 -14
24 6 55 56 65 101 4 21 17 40 34 50 15 9 44 36 65 60 37 41 40 42 58 25 11 -9
17 -25 15 -35z m-204 -938 c3 -13 0 -20 -9 -20 -8 0 -14 9 -14 20 0 11 4 20 9
20 5 0 11 -9 14 -20z m47 -284 c-12 -12 -140 -19 -140 -7 0 14 8 16 80 17 51
1 68 -2 60 -10z m-110 -97 c0 -7 9 -9 23 -6 16 4 27 -1 40 -19 l18 -24 -33 14
c-18 8 -41 17 -50 20 -19 6 -25 26 -8 26 6 0 10 -5 10 -11z m-30 -9 c0 -5 -5
-10 -11 -10 -5 0 -7 5 -4 10 3 6 8 10 11 10 2 0 4 -4 4 -10z"/>
<path d="M866 461 c-3 -5 1 -11 9 -15 38 -14 -5 -66 -55 -66 -20 0 -22 -2 -10
-10 38 -24 131 5 147 47 12 32 -73 73 -91 44z"/>
<path d="M788 283 c-17 -35 -59 -51 -97 -36 -39 14 -57 3 -42 -26 14 -25 56
-27 114 -7 50 18 77 44 77 73 0 33 -35 31 -52 -4z"/>
<path d="M2451 114 c0 -11 3 -14 6 -6 3 7 2 16 -1 19 -3 4 -6 -2 -5 -13z"/>
</g>
</svg>
